<svg xmlns="http://www.w3.org/2000/svg" width="44" height="43" viewBox="0 0 44 43" fill="none">
    <path d="M21.7796 3.54131C18.2139 3.54131 14.7283 4.57977 11.7635 6.52539C8.79878 8.47101 6.48803 11.2364 5.1235 14.4718C3.75897 17.7073 3.40195 21.2675 4.09758 24.7022C4.79321 28.1369 6.51025 31.2919 9.03158 33.7682C11.5529 36.2445 14.7653 37.9309 18.2624 38.6141C21.7596 39.2973 25.3845 38.9467 28.6788 37.6065C31.9731 36.2663 34.7887 33.9969 36.7697 31.085C38.7507 28.1732 39.8081 24.7498 39.8081 21.2478C39.8081 18.9226 39.3417 16.6201 38.4357 14.4718C37.5297 12.3236 36.2018 10.3716 34.5277 8.72742C32.8536 7.08322 30.8661 5.77897 28.6788 4.88913C26.4915 3.9993 24.1471 3.54131 21.7796 3.54131ZM21.7796 35.413C18.9271 35.413 16.1386 34.5823 13.7668 33.0258C11.395 31.4693 9.54635 29.257 8.45473 26.6686C7.3631 24.0803 7.07748 21.2321 7.63399 18.4843C8.19049 15.7365 9.56413 13.2125 11.5812 11.2315C13.5982 9.25046 16.1681 7.90136 18.9659 7.35479C21.7636 6.80822 24.6636 7.08874 27.299 8.16087C29.9344 9.233 32.1869 11.0486 33.7717 13.378C35.3565 15.7075 36.2024 18.4462 36.2024 21.2478C36.2024 25.0047 34.6828 28.6076 31.9781 31.2641C29.2733 33.9206 25.6048 35.413 21.7796 35.413Z" fill="#14FF00"/>
    <path d="M26.6473 14.8558L19.8325 23.709L16.8939 19.9729C16.5998 19.6019 16.1678 19.3609 15.6927 19.3028C15.2177 19.2447 14.7386 19.3743 14.3609 19.6631C13.9832 19.9519 13.7377 20.3762 13.6786 20.8428C13.6194 21.3093 13.7513 21.7798 14.0454 22.1508L18.4263 27.6576C18.5961 27.8686 18.8126 28.0389 19.0594 28.1554C19.3061 28.272 19.5767 28.3319 19.8506 28.3304C20.1259 28.3298 20.3974 28.2672 20.6443 28.1475C20.8912 28.0278 21.1069 27.8541 21.2748 27.6399L29.5138 17.0159C29.8055 16.6403 29.9332 16.1662 29.869 15.698C29.8048 15.2298 29.5538 14.8058 29.1713 14.5193C28.7888 14.2329 28.306 14.1074 27.8293 14.1705C27.3526 14.2336 26.9209 14.4801 26.6293 14.8558H26.6473Z" fill="#14FF00"/>
</svg>
