<svg xmlns="http://www.w3.org/2000/svg" width="44" height="43" viewBox="0 0 44 43" fill="none">
<g opacity="0.3">
<path d="M21.7614 3.5413C18.1957 3.5413 14.7101 4.57977 11.7454 6.52539C8.7806 8.471 6.46984 11.2364 5.10531 14.4718C3.74078 17.7073 3.38376 21.2675 4.07939 24.7022C4.77502 28.1369 6.49207 31.2919 9.01339 33.7682C11.5347 36.2445 14.7471 37.9309 18.2443 38.6141C21.7414 39.2973 25.3664 38.9467 28.6606 37.6065C31.9549 36.2663 34.7705 33.9968 36.7515 31.085C38.7325 28.1732 39.7899 24.7498 39.7899 21.2478C39.7899 18.9226 39.3236 16.6201 38.4175 14.4718C37.5115 12.3236 36.1836 10.3716 34.5095 8.72742C32.8354 7.08322 30.8479 5.77897 28.6606 4.88913C26.4733 3.99929 24.129 3.5413 21.7614 3.5413ZM21.7614 35.413C18.9089 35.413 16.1204 34.5823 13.7486 33.0258C11.3768 31.4693 9.52816 29.257 8.43654 26.6686C7.34491 24.0803 7.05929 21.2321 7.6158 18.4843C8.1723 15.7365 9.54594 13.2125 11.563 11.2315C13.5801 9.25046 16.1499 7.90135 18.9477 7.35479C21.7454 6.80822 24.6454 7.08874 27.2808 8.16087C29.9162 9.233 32.1687 11.0486 33.7535 13.378C35.3383 15.7075 36.1842 18.4462 36.1842 21.2478C36.1842 25.0047 34.6647 28.6076 31.9599 31.2641C29.2551 33.9206 25.5866 35.413 21.7614 35.413Z" fill="#231F20"/>
<path d="M26.6291 14.8557L19.8144 23.709L16.8757 19.9729C16.5817 19.6019 16.1496 19.3609 15.6746 19.3028C15.1995 19.2447 14.7205 19.3743 14.3427 19.6631C13.965 19.9519 13.7195 20.3762 13.6604 20.8428C13.6012 21.3093 13.7332 21.7798 14.0272 22.1508L18.4081 27.6576C18.5779 27.8686 18.7944 28.0388 19.0412 28.1554C19.288 28.272 19.5586 28.3319 19.8324 28.3304C20.1077 28.3298 20.3792 28.2672 20.6261 28.1475C20.873 28.0278 21.0887 27.8541 21.2566 27.6398L29.4956 17.0159C29.7873 16.6403 29.9151 16.1662 29.8508 15.698C29.7866 15.2297 29.5356 14.8058 29.1531 14.5193C28.7706 14.2329 28.2879 14.1074 27.8112 14.1705C27.3344 14.2336 26.9028 14.4801 26.6111 14.8557H26.6291Z" fill="#231F20"/>
</g>
</svg>
